<?xml version="1.0" encoding="UTF-8"?>
<svg width="60" height="60" viewBox="0 0 60 60" xmlns="http://www.w3.org/2000/svg">
  <!-- Background canvas -->
  <rect x="8" y="12" width="44" height="36" rx="2" ry="2" 
        fill="#f8f9fa" stroke="#495057" stroke-width="2"/>
  
  <!-- Image placeholder -->
  <rect x="12" y="16" width="16" height="12" rx="1" ry="1" 
        fill="#e9ecef" stroke="#6c757d" stroke-width="1"/>
  
  <!-- Small mountain icon inside image placeholder -->
  <path d="M14 24 L18 20 L22 22 L26 18 L26 26 L14 26 Z" 
        fill="#6c757d"/>
  <circle cx="16" cy="19" r="1.5" fill="#6c757d"/>
  
  <!-- Text lines -->
  <rect x="32" y="18" width="16" height="2" rx="1" fill="#495057"/>
  <rect x="32" y="22" width="12" height="2" rx="1" fill="#6c757d"/>
  <rect x="32" y="26" width="14" height="2" rx="1" fill="#6c757d"/>
  
  <!-- Edit/brush icon -->
  <g transform="translate(40, 32)">
    <path d="M2 8 L8 2 L10 4 L4 10 L2 10 Z" 
          fill="#007bff" stroke="#0056b3" stroke-width="0.5"/>
    <circle cx="9" cy="3" r="1.5" fill="#007bff"/>
    <path d="M2 10 L0 12 L2 12 Z" fill="#495057"/>
  </g>
  
  <!-- Color palette dots -->
  <circle cx="14" cy="38" r="2" fill="#dc3545"/>
  <circle cx="20" cy="38" r="2" fill="#28a745"/>
  <circle cx="26" cy="38" r="2" fill="#007bff"/>
  <circle cx="32" cy="38" r="2" fill="#ffc107"/>
</svg>